<svg xmlns="http://www.w3.org/2000/svg" xmlns:xlink="http://www.w3.org/1999/xlink" version="1.1" width="256" height="256" viewBox="0 0 256 256" xml:space="preserve">

<defs>
</defs>
<g style="stroke: none; stroke-width: 0; stroke-dasharray: none; stroke-linecap: butt; stroke-linejoin: miter; stroke-miterlimit: 10; fill: none; fill-rule: nonzero; opacity: 1;" transform="translate(1.4065934065934016 1.4065934065934016) scale(2.81 2.81)" >
	<path d="M 5.735 72.89 c -2.397 0 -4.177 -1.607 -5.062 -4.664 C -2.802 56.227 7.817 20.797 17.827 17.58 c 3.123 -1.22 7.869 0.214 13.366 1.875 c 4.435 1.34 9.461 2.858 13.807 2.858 c 3.893 -0.145 8.467 -1.482 12.889 -2.776 c 5.92 -1.731 11.032 -3.227 14.342 -1.936 c 9.952 3.196 20.571 38.626 17.096 50.625 c -1.072 3.703 -3.458 5.279 -6.711 4.435 c -4.576 -0.919 -9.42 -3.149 -14.549 -5.511 c -7.376 -3.396 -15.005 -6.908 -23.071 -7.156 c -7.777 0.183 -15.453 3.698 -22.876 7.098 c -5.217 2.389 -10.145 4.646 -14.789 5.581 C 6.774 72.819 6.241 72.89 5.735 72.89 z M 20.586 19.135 c -0.796 0 -1.5 0.1 -2.09 0.33 C 10.286 22.105 -0.82 55.88 2.595 67.67 c 1.005 3.472 2.929 3.404 4.289 3.056 c 4.469 -0.902 9.294 -3.111 14.403 -5.451 c 7.616 -3.488 15.492 -7.095 23.69 -7.28 h 0.052 c 8.483 0.253 16.308 3.856 23.874 7.339 c 5.019 2.31 9.76 4.494 14.159 5.379 c 1.412 0.362 3.335 0.429 4.342 -3.042 c 3.414 -11.791 -7.691 -45.565 -15.844 -48.185 c -2.735 -1.064 -7.773 0.411 -13.111 1.972 c -4.541 1.328 -9.235 2.701 -13.414 2.856 c -0.001 0 -0.002 0 -0.003 0 c -4.678 0 -9.853 -1.563 -14.42 -2.943 C 26.833 20.228 23.212 19.135 20.586 19.135 z" style="stroke: none; stroke-width: 1; stroke-dasharray: none; stroke-linecap: butt; stroke-linejoin: miter; stroke-miterlimit: 10; fill: rgb(0,0,0); fill-rule: nonzero; opacity: 1;" transform=" matrix(1 0 0 1 0 0) " stroke-linecap="round" />
	<path d="M 25.405 53.891 c -2.894 0 -5.248 -2.354 -5.248 -5.248 v -1.002 h -1.003 c -2.894 0 -5.248 -2.354 -5.248 -5.248 c 0 -2.894 2.354 -5.248 5.248 -5.248 h 1.003 v -1.002 c 0 -2.894 2.354 -5.248 5.248 -5.248 s 5.248 2.354 5.248 5.248 v 1.002 h 1.003 c 2.894 0 5.248 2.354 5.248 5.248 c 0 2.894 -2.354 5.248 -5.248 5.248 h -1.003 v 1.002 C 30.653 51.536 28.299 53.891 25.405 53.891 z M 19.155 39.145 c -1.791 0 -3.247 1.457 -3.247 3.247 c 0 1.791 1.457 3.248 3.247 3.248 h 3.003 v 3.003 c 0 1.791 1.457 3.247 3.247 3.247 c 1.791 0 3.247 -1.457 3.247 -3.247 V 45.64 h 3.003 c 1.791 0 3.247 -1.457 3.247 -3.248 c 0 -1.791 -1.457 -3.247 -3.247 -3.247 h -3.003 v -3.003 c 0 -1.791 -1.457 -3.248 -3.247 -3.248 c -1.791 0 -3.247 1.457 -3.247 3.248 v 3.003 H 19.155 z" style="stroke: none; stroke-width: 1; stroke-dasharray: none; stroke-linecap: butt; stroke-linejoin: miter; stroke-miterlimit: 10; fill: rgb(0,0,0); fill-rule: nonzero; opacity: 1;" transform=" matrix(1 0 0 1 0 0) " stroke-linecap="round" />
	<path d="M 65.355 39.32 c -2.228 0 -4.04 -1.812 -4.04 -4.04 s 1.812 -4.04 4.04 -4.04 c 2.227 0 4.039 1.812 4.039 4.04 S 67.583 39.32 65.355 39.32 z M 65.355 33.241 c -1.124 0 -2.04 0.915 -2.04 2.039 s 0.915 2.039 2.04 2.039 s 2.039 -0.915 2.039 -2.039 S 66.48 33.241 65.355 33.241 z" style="stroke: none; stroke-width: 1; stroke-dasharray: none; stroke-linecap: butt; stroke-linejoin: miter; stroke-miterlimit: 10; fill: rgb(0,0,0); fill-rule: nonzero; opacity: 1;" transform=" matrix(1 0 0 1 0 0) " stroke-linecap="round" />
	<path d="M 65.355 53.91 c -2.228 0 -4.04 -1.812 -4.04 -4.04 c 0 -2.227 1.812 -4.039 4.04 -4.039 c 2.227 0 4.039 1.812 4.039 4.039 C 69.395 52.098 67.583 53.91 65.355 53.91 z M 65.355 47.831 c -1.124 0 -2.04 0.914 -2.04 2.039 c 0 1.124 0.915 2.04 2.04 2.04 s 2.039 -0.915 2.039 -2.04 C 67.394 48.745 66.48 47.831 65.355 47.831 z" style="stroke: none; stroke-width: 1; stroke-dasharray: none; stroke-linecap: butt; stroke-linejoin: miter; stroke-miterlimit: 10; fill: rgb(0,0,0); fill-rule: nonzero; opacity: 1;" transform=" matrix(1 0 0 1 0 0) " stroke-linecap="round" />
	<path d="M 58.06 46.615 c -2.227 0 -4.039 -1.812 -4.039 -4.04 c 0 -2.228 1.812 -4.04 4.039 -4.04 c 2.228 0 4.04 1.812 4.04 4.04 C 62.1 44.803 60.288 46.615 58.06 46.615 z M 58.06 40.536 c -1.124 0 -2.039 0.915 -2.039 2.039 c 0 1.124 0.914 2.039 2.039 2.039 c 1.124 0 2.04 -0.915 2.04 -2.039 C 60.1 41.451 59.184 40.536 58.06 40.536 z" style="stroke: none; stroke-width: 1; stroke-dasharray: none; stroke-linecap: butt; stroke-linejoin: miter; stroke-miterlimit: 10; fill: rgb(0,0,0); fill-rule: nonzero; opacity: 1;" transform=" matrix(1 0 0 1 0 0) " stroke-linecap="round" />
	<path d="M 72.65 46.615 c -2.227 0 -4.039 -1.812 -4.039 -4.04 c 0 -2.228 1.812 -4.04 4.039 -4.04 c 2.228 0 4.04 1.812 4.04 4.04 C 76.69 44.803 74.878 46.615 72.65 46.615 z M 72.65 40.536 c -1.124 0 -2.039 0.915 -2.039 2.039 c 0 1.124 0.914 2.039 2.039 2.039 s 2.04 -0.915 2.04 -2.039 C 74.689 41.451 73.774 40.536 72.65 40.536 z" style="stroke: none; stroke-width: 1; stroke-dasharray: none; stroke-linecap: butt; stroke-linejoin: miter; stroke-miterlimit: 10; fill: rgb(0,0,0); fill-rule: nonzero; opacity: 1;" transform=" matrix(1 0 0 1 0 0) " stroke-linecap="round" />
</g>
</svg>