<svg xmlns="http://www.w3.org/2000/svg" xmlns:xlink="http://www.w3.org/1999/xlink" version="1.1" width="256" height="256" viewBox="0 0 256 256" xml:space="preserve">

<defs>
</defs>
<g style="stroke: none; stroke-width: 0; stroke-dasharray: none; stroke-linecap: butt; stroke-linejoin: miter; stroke-miterlimit: 10; fill: none; fill-rule: nonzero; opacity: 1;" transform="translate(1.4065934065934016 1.4065934065934016) scale(2.81 2.81)" >
	<path d="M 56.08 67.672 H 33.92 c -1.104 0 -2 -0.895 -2 -2 v -0.67 c 0 -4.366 -2.036 -8.481 -5.586 -11.291 l 0 0 c -7.814 -6.184 -12.06 -15.825 -11.357 -25.791 c 1.054 -14.944 13.128 -26.92 28.084 -27.859 c 8.423 -0.532 16.421 2.346 22.542 8.094 C 71.638 13.825 75.1 21.823 75.1 30.1 c 0 9.36 -4.244 18.026 -11.644 23.776 C 60.09 56.492 58.08 60.65 58.08 65 v 0.673 C 58.08 66.777 57.184 67.672 56.08 67.672 z M 35.871 63.673 h 18.258 c 0.374 -5.086 2.884 -9.855 6.872 -12.954 C 67.42 45.731 71.1 38.216 71.1 30.1 c 0 -7.283 -2.925 -14.041 -8.236 -19.028 c -5.308 -4.984 -12.255 -7.479 -19.552 -7.018 C 30.347 4.868 19.881 15.25 18.967 28.202 c -0.61 8.646 3.072 17.009 9.849 22.373 l 0 0 C 32.971 53.863 35.495 58.579 35.871 63.673 z" style="stroke: none; stroke-width: 1; stroke-dasharray: none; stroke-linecap: butt; stroke-linejoin: miter; stroke-miterlimit: 10; fill: rgb(0,0,0); fill-rule: nonzero; opacity: 1;" transform=" matrix(1 0 0 1 0 0) " stroke-linecap="round" />
	<path d="M 56.08 75.115 H 33.92 c -1.104 0 -2 -0.895 -2 -2 c 0 -1.104 0.895 -2 2 -2 h 22.16 c 1.104 0 2 0.895 2 2 C 58.08 74.219 57.184 75.115 56.08 75.115 z" style="stroke: none; stroke-width: 1; stroke-dasharray: none; stroke-linecap: butt; stroke-linejoin: miter; stroke-miterlimit: 10; fill: rgb(0,0,0); fill-rule: nonzero; opacity: 1;" transform=" matrix(1 0 0 1 0 0) " stroke-linecap="round" />
	<path d="M 56.08 82.557 H 33.92 c -1.104 0 -2 -0.895 -2 -2 c 0 -1.104 0.895 -2 2 -2 h 22.16 c 1.104 0 2 0.895 2 2 C 58.08 81.661 57.184 82.557 56.08 82.557 z" style="stroke: none; stroke-width: 1; stroke-dasharray: none; stroke-linecap: butt; stroke-linejoin: miter; stroke-miterlimit: 10; fill: rgb(0,0,0); fill-rule: nonzero; opacity: 1;" transform=" matrix(1 0 0 1 0 0) " stroke-linecap="round" />
	<path d="M 53.382 89.999 H 36.618 c -1.104 0 -2 -0.895 -2 -2 c 0 -1.104 0.895 -2 2 -2 h 16.764 c 1.104 0 2 0.895 2 2 C 55.382 89.104 54.486 89.999 53.382 89.999 z" style="stroke: none; stroke-width: 1; stroke-dasharray: none; stroke-linecap: butt; stroke-linejoin: miter; stroke-miterlimit: 10; fill: rgb(0,0,0); fill-rule: nonzero; opacity: 1;" transform=" matrix(1 0 0 1 0 0) " stroke-linecap="round" />
</g>
</svg>