<svg xmlns="http://www.w3.org/2000/svg" xmlns:xlink="http://www.w3.org/1999/xlink" version="1.1" width="256" height="256" viewBox="0 0 256 256" xml:space="preserve">

<defs>
</defs>
<g style="stroke: none; stroke-width: 0; stroke-dasharray: none; stroke-linecap: butt; stroke-linejoin: miter; stroke-miterlimit: 10; fill: none; fill-rule: nonzero; opacity: 1;" transform="translate(1.4065934065934016 1.4065934065934016) scale(2.81 2.81)" >
	<path d="M 27.466 83.842 c -0.012 0 -0.023 0 -0.034 0 L 4.691 83.69 c -1.226 -0.008 -2.385 -0.451 -3.265 -1.246 C 0.498 81.606 -0.008 80.485 0 79.288 l 0.283 -42.621 c 0.016 -2.4 2.128 -4.34 4.714 -4.34 c 0.012 0 0.023 0 0.034 0 l 22.742 0.151 c 1.226 0.008 2.385 0.451 3.265 1.247 c 0.927 0.839 1.434 1.96 1.426 3.156 l -0.003 0.408 c 6.838 -2.442 13.813 -17.851 14.435 -29.325 l 0.061 -1.12 l 1.094 -0.247 c 4.129 -0.929 7.245 -0.385 9.535 1.664 c 3.887 3.479 5.089 11.363 3.754 24.745 l 21.067 0.105 c 1.843 0.012 3.574 0.745 4.874 2.063 c 1.301 1.318 2.01 3.057 1.997 4.898 l -0.007 1.082 c -0.014 2.06 -0.931 3.905 -2.372 5.163 c 0.336 0.238 0.653 0.507 0.948 0.806 c 1.301 1.318 2.01 3.058 1.997 4.899 l -0.007 1.083 c -0.014 2.147 -1.012 4.062 -2.56 5.322 c 1.667 1.274 2.739 3.288 2.724 5.542 l -0.007 1.083 c -0.023 3.432 -2.555 6.27 -5.838 6.786 c 0.841 1.175 1.29 2.579 1.281 4.047 l -0.008 1.083 c -0.012 1.841 -0.744 3.572 -2.062 4.872 c -1.306 1.289 -3.027 1.997 -4.85 1.997 c -0.016 0 -0.032 0 -0.047 0 l -30.617 -0.203 c -5.988 0.116 -11.906 -1.336 -15.699 -3.681 C 31.895 82.139 29.889 83.842 27.466 83.842 z M 4.997 35.294 c -0.944 0 -1.743 0.636 -1.748 1.393 l -0.283 42.62 c -0.003 0.459 0.28 0.783 0.449 0.936 c 0.334 0.302 0.806 0.477 1.294 0.48 l 22.742 0.152 c 0.982 -0.013 1.757 -0.632 1.762 -1.394 l 0.042 -6.432 l 2.563 2.857 c 2.585 2.882 9.348 4.898 16.014 4.759 l 30.655 0.203 c 0.01 0 0.018 0 0.027 0 c 1.039 0 2.021 -0.405 2.767 -1.142 c 0.754 -0.744 1.173 -1.731 1.179 -2.78 l 0.008 -1.084 c 0.007 -1.048 -0.399 -2.04 -1.143 -2.793 c -0.744 -0.754 -1.73 -1.173 -2.779 -1.179 l 0.019 -2.967 l 4.485 0.029 c 2.18 -0.022 3.96 -1.745 3.974 -3.921 l 0.007 -1.083 c 0.014 -2.177 -1.744 -3.96 -3.921 -3.974 l -0.202 -0.001 c -0.012 0 -0.022 0 -0.034 0 l 0.039 -2.967 c 0.002 0 0.004 0 0.007 0 c 2.164 0 3.934 -1.754 3.948 -3.921 l 0.007 -1.083 c 0.007 -1.049 -0.399 -2.042 -1.143 -2.795 c -0.743 -0.753 -1.73 -1.173 -2.779 -1.179 l -0.646 -0.004 l 0.021 -2.967 c 2.177 -0.031 3.958 -1.745 3.972 -3.922 l 0.007 -1.082 c 0.007 -1.049 -0.399 -2.041 -1.143 -2.795 c -0.744 -0.753 -1.731 -1.173 -2.779 -1.179 l -24.353 -0.122 l 0.182 -1.64 c 1.465 -13.162 0.611 -20.962 -2.611 -23.845 c -1.364 -1.22 -3.232 -1.605 -5.83 -1.188 c -1.1 12.691 -9.11 30.802 -18.736 31.295 l -1.57 0.081 l 0.026 -3.798 c 0.003 -0.458 -0.28 -0.783 -0.449 -0.936 c -0.334 -0.302 -0.806 -0.477 -1.294 -0.48 L 5.011 35.294 C 5.006 35.294 5.002 35.294 4.997 35.294 z" style="stroke: none; stroke-width: 1; stroke-dasharray: none; stroke-linecap: butt; stroke-linejoin: miter; stroke-miterlimit: 10; fill: rgb(0,0,0); fill-rule: nonzero; opacity: 1;" transform=" matrix(1 0 0 1 0 0) " stroke-linecap="round" />
</g>
</svg>