<svg xmlns="http://www.w3.org/2000/svg" xmlns:xlink="http://www.w3.org/1999/xlink" version="1.1" width="256" height="256" viewBox="0 0 256 256" xml:space="preserve">

<defs>
</defs>
<g style="stroke: none; stroke-width: 0; stroke-dasharray: none; stroke-linecap: butt; stroke-linejoin: miter; stroke-miterlimit: 10; fill: none; fill-rule: nonzero; opacity: 1;" transform="translate(1.4065934065934016 1.4065934065934016) scale(2.81 2.81)" >
	<path d="M 48.303 7.382 c -0.146 0 -0.291 -0.009 -0.438 -0.026 c -0.979 -0.115 -1.855 -0.604 -2.466 -1.378 c -0.611 -0.773 -0.884 -1.739 -0.769 -2.718 c 0.115 -0.979 0.604 -1.855 1.378 -2.466 c 0.773 -0.611 1.742 -0.882 2.717 -0.769 c 0.979 0.115 1.855 0.604 2.467 1.378 c 0.61 0.773 0.884 1.739 0.769 2.718 l 0 0 c -0.114 0.979 -0.604 1.855 -1.378 2.466 C 49.926 7.107 49.129 7.382 48.303 7.382 z M 48.292 2 c -0.378 0 -0.743 0.126 -1.044 0.364 c -0.354 0.28 -0.579 0.681 -0.631 1.13 c -0.053 0.448 0.072 0.891 0.352 1.245 c 0.28 0.354 0.681 0.579 1.129 0.631 c 0.455 0.052 0.892 -0.072 1.246 -0.353 c 0.354 -0.279 0.578 -0.681 0.631 -1.129 V 3.888 c 0.053 -0.448 -0.072 -0.891 -0.352 -1.245 c -0.28 -0.354 -0.682 -0.579 -1.13 -0.631 C 48.426 2.004 48.358 2 48.292 2 z" style="stroke: none; stroke-width: 1; stroke-dasharray: none; stroke-linecap: butt; stroke-linejoin: miter; stroke-miterlimit: 10; fill: rgb(0,0,0); fill-rule: nonzero; opacity: 1;" transform=" matrix(1 0 0 1 0 0) " stroke-linecap="round" />
	<rect x="52.33" y="74.63" rx="0" ry="0" width="17.68" height="2" style="stroke: none; stroke-width: 1; stroke-dasharray: none; stroke-linecap: butt; stroke-linejoin: miter; stroke-miterlimit: 10; fill: rgb(0,0,0); fill-rule: nonzero; opacity: 1;" transform=" matrix(0.9924 -0.1231 0.1231 0.9924 -8.8431 8.1028) "/>
	<rect x="53.89" y="67.74" rx="0" ry="0" width="15.15" height="2" style="stroke: none; stroke-width: 1; stroke-dasharray: none; stroke-linecap: butt; stroke-linejoin: miter; stroke-miterlimit: 10; fill: rgb(0,0,0); fill-rule: nonzero; opacity: 1;" transform=" matrix(0.9924 -0.1231 0.1231 0.9924 -7.9925 8.0874) "/>
	<path d="M 77.174 77.033 l -5.197 -41.895 c -0.161 -1.305 -0.822 -2.469 -1.859 -3.277 c -1.036 -0.808 -2.325 -1.167 -3.631 -1.002 l -12.753 1.582 c -3.136 -6.552 -4.66 -14.992 -4.752 -26.087 c -0.003 -0.403 -0.249 -0.765 -0.622 -0.917 c -0.372 -0.151 -0.801 -0.065 -1.086 0.22 c -4.84 4.858 -8.125 10.087 -9.948 15.836 c -1.226 -0.05 -2.417 0.392 -3.313 1.249 L 21.315 34.887 c -2.161 2.067 -3.543 4.841 -3.892 7.811 l -4.604 39.18 c -0.141 1.202 0.194 2.389 0.945 3.339 c 0.751 0.951 1.827 1.552 3.03 1.693 l 26.04 3.06 C 43.014 89.99 43.193 90 43.371 90 c 1.015 0 1.993 -0.338 2.802 -0.977 c 0.951 -0.75 1.552 -1.826 1.693 -3.029 l 0.129 -1.095 c 0.62 0.276 1.29 0.429 1.982 0.429 c 0.205 0 0.411 -0.013 0.618 -0.038 l 22.301 -2.767 C 75.589 82.189 77.508 79.727 77.174 77.033 z M 51.654 32.7 l -4.434 0.55 l -6.264 -9.692 c -0.424 -0.657 -1.011 -1.162 -1.681 -1.519 c 1.516 -4.737 4.066 -9.115 7.752 -13.213 C 47.307 18.708 48.809 26.473 51.654 32.7 z M 36.505 29.79 c 0.065 0 0.132 0.004 0.198 0.012 c 0.926 0.109 1.591 0.951 1.482 1.876 c -0.109 0.926 -0.95 1.595 -1.876 1.482 c -0.448 -0.053 -0.85 -0.277 -1.129 -0.631 c -0.28 -0.354 -0.405 -0.797 -0.353 -1.245 C 34.928 30.425 35.66 29.79 36.505 29.79 z M 22.698 36.332 l 12.698 -12.145 c 0.377 -0.361 0.849 -0.585 1.351 -0.665 c -0.356 1.411 -0.626 2.854 -0.814 4.33 c -1.591 0.253 -2.895 1.521 -3.093 3.198 c -0.115 0.979 0.158 1.944 0.769 2.718 c 0.611 0.774 1.487 1.264 2.466 1.378 c 0.146 0.017 0.29 0.025 0.433 0.025 c 1.844 0 3.443 -1.385 3.663 -3.26 c 0.196 -1.667 -0.766 -3.194 -2.239 -3.816 c 0.177 -1.384 0.429 -2.74 0.763 -4.065 c 0.221 0.173 0.424 0.371 0.581 0.613 L 48.814 39.4 c 1.371 2.122 1.963 4.673 1.669 7.182 l -0.017 0.147 L 19.39 43.094 l 0.019 -0.163 C 19.704 40.422 20.872 38.078 22.698 36.332 z M 45.88 85.762 c -0.163 1.387 -1.421 2.383 -2.813 2.221 l -26.04 -3.06 c -0.672 -0.079 -1.274 -0.415 -1.693 -0.946 s -0.607 -1.194 -0.528 -1.867 l 4.351 -37.029 l 31.076 3.635 L 45.88 85.762 z M 72.649 80.539 l -22.301 2.767 c -0.76 0.09 -1.499 -0.123 -2.099 -0.573 l 4.22 -35.918 c 0.349 -2.969 -0.354 -5.987 -1.976 -8.5 l -2.068 -3.2 l 4.162 -0.516 c 0.405 0.765 0.832 1.506 1.283 2.223 c -0.887 0.578 -1.529 1.518 -1.662 2.65 c -0.236 2.021 1.215 3.858 3.235 4.096 c 0.146 0.017 0.292 0.026 0.438 0.026 c 0.826 0 1.623 -0.275 2.28 -0.795 c 0.773 -0.611 1.263 -1.486 1.378 -2.465 c 0.115 -0.979 -0.157 -1.945 -0.769 -2.719 c -0.611 -0.773 -1.487 -1.263 -2.467 -1.378 c -0.147 -0.017 -0.29 -0.007 -0.435 -0.007 c -0.401 -0.612 -0.783 -1.244 -1.148 -1.895 l 12.01 -1.49 c 0.774 -0.096 1.541 0.116 2.156 0.595 c 0.615 0.48 1.007 1.171 1.104 1.945 l 5.197 41.895 C 75.388 78.878 74.248 80.341 72.649 80.539 z M 54.195 39.705 c 0.102 -0.859 0.833 -1.494 1.678 -1.494 c 0.065 0 0.132 0.004 0.199 0.012 c 0.448 0.053 0.85 0.277 1.13 0.631 c 0.279 0.354 0.404 0.796 0.352 1.245 V 40.1 c -0.053 0.448 -0.276 0.849 -0.631 1.129 s -0.794 0.405 -1.246 0.352 C 54.752 41.472 54.087 40.63 54.195 39.705 z" style="stroke: none; stroke-width: 1; stroke-dasharray: none; stroke-linecap: butt; stroke-linejoin: miter; stroke-miterlimit: 10; fill: rgb(0,0,0); fill-rule: nonzero; opacity: 1;" transform=" matrix(1 0 0 1 0 0) " stroke-linecap="round" />
	<rect x="57.26" y="60.73" rx="0" ry="0" width="10.79" height="2" style="stroke: none; stroke-width: 1; stroke-dasharray: none; stroke-linecap: butt; stroke-linejoin: miter; stroke-miterlimit: 10; fill: rgb(0,0,0); fill-rule: nonzero; opacity: 1;" transform=" matrix(0.9924 -0.1231 0.1231 0.9924 -7.1213 8.181) "/>
	<path d="M 30.929 79.355 l -0.45 -0.329 c -2.173 -1.587 -5.435 -5.097 -6.712 -7.221 c -2.742 -4.563 -2.778 -9.602 -0.088 -11.981 c 1.301 -1.15 2.998 -1.699 4.769 -1.541 c 1.758 0.154 3.425 0.992 4.776 2.385 c 1.648 -1.024 3.471 -1.432 5.212 -1.159 c 1.759 0.278 3.27 1.22 4.253 2.65 l 0 0 c 2.036 2.959 0.781 7.839 -2.983 11.603 c -1.751 1.752 -5.766 4.368 -8.26 5.383 L 30.929 79.355 z M 27.861 60.257 c -1.07 0 -2.072 0.371 -2.857 1.065 c -1.937 1.713 -1.731 5.776 0.478 9.453 c 1.064 1.771 3.771 4.725 5.729 6.292 c 2.281 -1.049 5.622 -3.26 7.082 -4.72 c 3.032 -3.032 4.214 -6.926 2.75 -9.056 h 0 c -0.669 -0.974 -1.705 -1.615 -2.917 -1.808 c -1.469 -0.229 -3.054 0.23 -4.454 1.305 l -0.78 0.599 l -0.612 -0.77 c -1.097 -1.38 -2.52 -2.212 -4.005 -2.343 C 28.134 60.264 27.997 60.257 27.861 60.257 z" style="stroke: none; stroke-width: 1; stroke-dasharray: none; stroke-linecap: butt; stroke-linejoin: miter; stroke-miterlimit: 10; fill: rgb(0,0,0); fill-rule: nonzero; opacity: 1;" transform=" matrix(1 0 0 1 0 0) " stroke-linecap="round" />
</g>
</svg>