<svg xmlns="http://www.w3.org/2000/svg" xmlns:xlink="http://www.w3.org/1999/xlink" version="1.1" width="256" height="256" viewBox="0 0 256 256" xml:space="preserve">

<defs>
</defs>
<g style="stroke: none; stroke-width: 0; stroke-dasharray: none; stroke-linecap: butt; stroke-linejoin: miter; stroke-miterlimit: 10; fill: none; fill-rule: nonzero; opacity: 1;" transform="translate(1.4065934065934016 1.4065934065934016) scale(2.81 2.81)" >
	<path d="M 14.972 86.134 c -0.193 0 -0.388 -0.038 -0.574 -0.116 c -0.551 -0.231 -0.909 -0.77 -0.909 -1.368 V 67.853 H 5.177 C 2.322 67.853 0 65.531 0 62.676 V 9.043 c 0 -2.854 2.322 -5.177 5.177 -5.177 h 79.646 C 87.678 3.866 90 6.189 90 9.043 v 53.633 c 0 2.855 -2.322 5.177 -5.177 5.177 H 34.206 L 16.011 85.709 C 15.728 85.987 15.353 86.134 14.972 86.134 z M 5.177 6.833 c -1.218 0 -2.21 0.991 -2.21 2.21 v 53.633 c 0 1.219 0.991 2.21 2.21 2.21 h 9.795 c 0.82 0 1.484 0.664 1.484 1.484 v 14.746 L 32.56 65.311 c 0.278 -0.272 0.65 -0.425 1.039 -0.425 h 51.224 c 1.219 0 2.21 -0.991 2.21 -2.21 V 9.043 c 0 -1.218 -0.991 -2.21 -2.21 -2.21 H 5.177 z" style="stroke: none; stroke-width: 1; stroke-dasharray: none; stroke-linecap: butt; stroke-linejoin: miter; stroke-miterlimit: 10; fill: rgb(0,0,0); fill-rule: nonzero; opacity: 1;" transform=" matrix(1 0 0 1 0 0) " stroke-linecap="round" />
	<path d="M 45.194 51.155 c -0.82 0 -1.484 -0.664 -1.484 -1.484 v -10.6 c 0 -0.819 0.664 -1.484 1.484 -1.484 c 5.21 0 9.448 -4.239 9.448 -9.448 s -4.238 -9.448 -9.448 -9.448 s -9.448 4.239 -9.448 9.448 c 0 0.82 -0.664 1.484 -1.484 1.484 s -1.484 -0.664 -1.484 -1.484 c 0 -6.846 5.569 -12.415 12.415 -12.415 s 12.415 5.569 12.415 12.415 c 0 6.344 -4.782 11.592 -10.931 12.327 v 9.205 C 46.678 50.491 46.014 51.155 45.194 51.155 z" style="stroke: none; stroke-width: 1; stroke-dasharray: none; stroke-linecap: butt; stroke-linejoin: miter; stroke-miterlimit: 10; fill: rgb(0,0,0); fill-rule: nonzero; opacity: 1;" transform=" matrix(1 0 0 1 0 0) " stroke-linecap="round" />
	<path d="M 45.194 58.001 c -0.82 0 -1.484 -0.664 -1.484 -1.484 V 54.53 c 0 -0.819 0.664 -1.484 1.484 -1.484 c 0.819 0 1.484 0.664 1.484 1.484 v 1.988 C 46.678 57.337 46.014 58.001 45.194 58.001 z" style="stroke: none; stroke-width: 1; stroke-dasharray: none; stroke-linecap: butt; stroke-linejoin: miter; stroke-miterlimit: 10; fill: rgb(0,0,0); fill-rule: nonzero; opacity: 1;" transform=" matrix(1 0 0 1 0 0) " stroke-linecap="round" />
</g>
</svg>