<svg xmlns="http://www.w3.org/2000/svg" xmlns:xlink="http://www.w3.org/1999/xlink" version="1.1" width="256" height="256" viewBox="0 0 256 256" xml:space="preserve">

<defs>
</defs>
<g style="stroke: none; stroke-width: 0; stroke-dasharray: none; stroke-linecap: butt; stroke-linejoin: miter; stroke-miterlimit: 10; fill: none; fill-rule: nonzero; opacity: 1;" transform="translate(1.4065934065934016 1.4065934065934016) scale(2.81 2.81)" >
	<path d="M 63.585 54.115 c -5.391 0 -10.781 -1.029 -16.135 -3.09 c -10.229 -3.939 -20.603 -3.939 -30.832 0 c -0.307 0.116 -0.654 0.077 -0.925 -0.109 c -0.272 -0.187 -0.434 -0.495 -0.434 -0.824 V 8.189 c 0 -0.414 0.255 -0.785 0.641 -0.933 c 10.706 -4.122 21.563 -4.122 32.269 0 c 10.23 3.938 20.604 3.938 30.832 0 c 0.308 -0.118 0.654 -0.078 0.926 0.109 c 0.271 0.187 0.434 0.495 0.434 0.824 v 41.903 c 0 0.414 -0.255 0.784 -0.641 0.934 C 74.366 53.086 68.976 54.115 63.585 54.115 z M 32.035 46.067 c 5.391 0 10.781 1.03 16.134 3.091 c 10.016 3.856 20.17 3.936 30.191 0.242 V 9.623 c -10.266 3.613 -20.655 3.446 -30.91 -0.501 C 37.436 5.267 27.28 5.187 17.259 8.881 v 39.776 C 22.165 46.931 27.101 46.067 32.035 46.067 z" style="stroke: none; stroke-width: 1; stroke-dasharray: none; stroke-linecap: butt; stroke-linejoin: miter; stroke-miterlimit: 10; fill: rgb(0,0,0); fill-rule: nonzero; opacity: 1;" transform=" matrix(1 0 0 1 0 0) " stroke-linecap="round" />
	<path d="M 16.259 90 c -0.552 0 -1 -0.447 -1 -1 V 1 c 0 -0.552 0.448 -1 1 -1 s 1 0.448 1 1 v 88 C 17.259 89.553 16.812 90 16.259 90 z" style="stroke: none; stroke-width: 1; stroke-dasharray: none; stroke-linecap: butt; stroke-linejoin: miter; stroke-miterlimit: 10; fill: rgb(0,0,0); fill-rule: nonzero; opacity: 1;" transform=" matrix(1 0 0 1 0 0) " stroke-linecap="round" />
	<path d="M 21.481 90 H 11.038 c -0.552 0 -1 -0.447 -1 -1 s 0.448 -1 1 -1 h 10.444 c 0.552 0 1 0.447 1 1 S 22.034 90 21.481 90 z" style="stroke: none; stroke-width: 1; stroke-dasharray: none; stroke-linecap: butt; stroke-linejoin: miter; stroke-miterlimit: 10; fill: rgb(0,0,0); fill-rule: nonzero; opacity: 1;" transform=" matrix(1 0 0 1 0 0) " stroke-linecap="round" />
</g>
</svg>