<svg xmlns="http://www.w3.org/2000/svg" xmlns:xlink="http://www.w3.org/1999/xlink" version="1.1" width="256" height="256" viewBox="0 0 256 256" xml:space="preserve">

<defs>
</defs>
<g style="stroke: none; stroke-width: 0; stroke-dasharray: none; stroke-linecap: butt; stroke-linejoin: miter; stroke-miterlimit: 10; fill: none; fill-rule: nonzero; opacity: 1;" transform="translate(1.4065934065934016 1.4065934065934016) scale(2.81 2.81)" >
	<path d="M 70.937 39.979 c -0.531 0 -1.063 -0.211 -1.456 -0.628 C 63.036 32.511 54.342 28.744 45 28.744 s -18.036 3.767 -24.48 10.606 c -0.757 0.804 -2.023 0.843 -2.827 0.084 c -0.804 -0.757 -0.841 -2.023 -0.084 -2.827 C 24.817 28.957 34.545 24.744 45 24.744 s 20.184 4.213 27.393 11.863 c 0.757 0.804 0.72 2.07 -0.085 2.827 C 71.922 39.799 71.429 39.979 70.937 39.979 z" style="stroke: none; stroke-width: 1; stroke-dasharray: none; stroke-linecap: butt; stroke-linejoin: miter; stroke-miterlimit: 10; fill: rgb(0,0,0); fill-rule: nonzero; opacity: 1;" transform=" matrix(1 0 0 1 0 0) " stroke-linecap="round" />
	<path d="M 61.21 49.565 c -0.531 0 -1.063 -0.211 -1.456 -0.629 C 55.87 44.814 50.63 42.543 45 42.543 c -5.629 0 -10.87 2.271 -14.754 6.393 c -0.757 0.805 -2.022 0.842 -2.827 0.085 c -0.804 -0.758 -0.841 -2.023 -0.084 -2.827 C 31.983 41.26 38.257 38.543 45 38.543 c 6.744 0 13.018 2.717 17.666 7.651 c 0.757 0.804 0.72 2.069 -0.085 2.827 C 62.195 49.385 61.702 49.565 61.21 49.565 z" style="stroke: none; stroke-width: 1; stroke-dasharray: none; stroke-linecap: butt; stroke-linejoin: miter; stroke-miterlimit: 10; fill: rgb(0,0,0); fill-rule: nonzero; opacity: 1;" transform=" matrix(1 0 0 1 0 0) " stroke-linecap="round" />
	<circle cx="44.996" cy="56.79600000000001" r="6.456" style="stroke: none; stroke-width: 1; stroke-dasharray: none; stroke-linecap: butt; stroke-linejoin: miter; stroke-miterlimit: 10; fill: rgb(0,0,0); fill-rule: nonzero; opacity: 1;" transform="  matrix(1 0 0 1 0 0) "/>
	<path d="M 45 90 C 20.187 90 0 69.813 0 45 C 0 20.187 20.187 0 45 0 c 24.813 0 45 20.187 45 45 C 90 69.813 69.813 90 45 90 z M 45 4 C 22.393 4 4 22.393 4 45 s 18.393 41 41 41 s 41 -18.393 41 -41 S 67.607 4 45 4 z" style="stroke: none; stroke-width: 1; stroke-dasharray: none; stroke-linecap: butt; stroke-linejoin: miter; stroke-miterlimit: 10; fill: rgb(0,0,0); fill-rule: nonzero; opacity: 1;" transform=" matrix(1 0 0 1 0 0) " stroke-linecap="round" />
</g>
</svg>