<svg xmlns="http://www.w3.org/2000/svg" xmlns:xlink="http://www.w3.org/1999/xlink" version="1.1" width="256" height="256" viewBox="0 0 256 256" xml:space="preserve">

<defs>
</defs>
<g style="stroke: none; stroke-width: 0; stroke-dasharray: none; stroke-linecap: butt; stroke-linejoin: miter; stroke-miterlimit: 10; fill: none; fill-rule: nonzero; opacity: 1;" transform="translate(1.4065934065934016 1.4065934065934016) scale(2.81 2.81)" >
	<path d="M 45 62.499 C 28.425 62.499 15.441 35.925 15.441 2 c 0 -1.104 0.896 -2 2 -2 h 55.118 c 1.104 0 2 0.896 2 2 C 74.559 35.925 61.575 62.499 45 62.499 z M 19.458 4 C 19.954 33.744 31.448 58.499 45 58.499 S 70.046 33.744 70.542 4 H 19.458 z" style="stroke: none; stroke-width: 1; stroke-dasharray: none; stroke-linecap: butt; stroke-linejoin: miter; stroke-miterlimit: 10; fill: rgb(0,0,0); fill-rule: nonzero; opacity: 1;" transform=" matrix(1 0 0 1 0 0) " stroke-linecap="round" />
	<path d="M 61.996 50.055 c -0.828 0 -1.602 -0.518 -1.889 -1.344 c -0.363 -1.043 0.188 -2.184 1.231 -2.546 c 11.997 -4.175 20.513 -18.521 21.144 -35.287 h -9.924 c -1.104 0 -2 -0.896 -2 -2 s 0.896 -2 2 -2 H 84.52 c 1.104 0 2 0.896 2 2 c 0 19.289 -9.814 36.175 -23.866 41.064 C 62.436 50.019 62.214 50.055 61.996 50.055 z" style="stroke: none; stroke-width: 1; stroke-dasharray: none; stroke-linecap: butt; stroke-linejoin: miter; stroke-miterlimit: 10; fill: rgb(0,0,0); fill-rule: nonzero; opacity: 1;" transform=" matrix(1 0 0 1 0 0) " stroke-linecap="round" />
	<path d="M 28.006 50.055 c -0.218 0 -0.439 -0.036 -0.657 -0.112 C 13.295 45.055 3.48 28.168 3.48 8.878 c 0 -1.104 0.896 -2 2 -2 h 11.961 c 1.104 0 2 0.896 2 2 s -0.896 2 -2 2 H 7.518 c 0.63 16.767 9.147 31.113 21.146 35.287 c 1.043 0.362 1.595 1.502 1.232 2.546 C 29.607 49.536 28.833 50.055 28.006 50.055 z" style="stroke: none; stroke-width: 1; stroke-dasharray: none; stroke-linecap: butt; stroke-linejoin: miter; stroke-miterlimit: 10; fill: rgb(0,0,0); fill-rule: nonzero; opacity: 1;" transform=" matrix(1 0 0 1 0 0) " stroke-linecap="round" />
	<path d="M 51.063 78.241 H 38.937 c -1.104 0 -2 -0.896 -2 -2 V 59.073 c 0 -1.104 0.896 -2 2 -2 s 2 0.896 2 2 v 15.168 h 8.126 v -15.17 c 0 -1.104 0.896 -2 2 -2 s 2 0.896 2 2 v 17.17 C 53.063 77.346 52.168 78.241 51.063 78.241 z" style="stroke: none; stroke-width: 1; stroke-dasharray: none; stroke-linecap: butt; stroke-linejoin: miter; stroke-miterlimit: 10; fill: rgb(0,0,0); fill-rule: nonzero; opacity: 1;" transform=" matrix(1 0 0 1 0 0) " stroke-linecap="round" />
	<path d="M 61.183 90 H 28.817 c -1.104 0 -2 -0.896 -2 -2 v -5.547 c 0 -4.528 3.684 -8.212 8.212 -8.212 h 19.941 c 4.528 0 8.212 3.684 8.212 8.212 V 88 C 63.183 89.104 62.287 90 61.183 90 z M 30.817 86 h 28.365 v -3.547 c 0 -2.322 -1.89 -4.212 -4.212 -4.212 H 35.029 c -2.322 0 -4.212 1.89 -4.212 4.212 V 86 z" style="stroke: none; stroke-width: 1; stroke-dasharray: none; stroke-linecap: butt; stroke-linejoin: miter; stroke-miterlimit: 10; fill: rgb(0,0,0); fill-rule: nonzero; opacity: 1;" transform=" matrix(1 0 0 1 0 0) " stroke-linecap="round" />
	<path d="M 65.402 90 H 24.598 c -1.104 0 -2 -0.896 -2 -2 s 0.896 -2 2 -2 h 40.804 c 1.104 0 2 0.896 2 2 S 66.507 90 65.402 90 z" style="stroke: none; stroke-width: 1; stroke-dasharray: none; stroke-linecap: butt; stroke-linejoin: miter; stroke-miterlimit: 10; fill: rgb(0,0,0); fill-rule: nonzero; opacity: 1;" transform=" matrix(1 0 0 1 0 0) " stroke-linecap="round" />
</g>
</svg>