<svg xmlns="http://www.w3.org/2000/svg" xmlns:xlink="http://www.w3.org/1999/xlink" version="1.1" width="256" height="256" viewBox="0 0 256 256" xml:space="preserve">

<defs>
</defs>
<g style="stroke: none; stroke-width: 0; stroke-dasharray: none; stroke-linecap: butt; stroke-linejoin: miter; stroke-miterlimit: 10; fill: none; fill-rule: nonzero; opacity: 1;" transform="translate(1.4065934065934016 1.4065934065934016) scale(2.81 2.81)" >
	<path d="M 82.639 67.949 H 7.361 C 3.848 67.949 1 65.101 1 61.588 v -48.47 c 0 -3.513 2.848 -6.361 6.361 -6.361 h 75.278 c 3.513 0 6.361 2.848 6.361 6.361 v 48.47 C 89 65.101 86.152 67.949 82.639 67.949 z" style="stroke: none; stroke-width: 1; stroke-dasharray: none; stroke-linecap: butt; stroke-linejoin: miter; stroke-miterlimit: 10; fill: rgb(255,0,0); fill-rule: nonzero; opacity: 1;" transform=" matrix(1 0 0 1 0 0) " stroke-linecap="round" />
	<path d="M 82.639 68.949 H 7.361 C 3.302 68.949 0 65.646 0 61.588 v -48.47 c 0 -4.059 3.302 -7.361 7.361 -7.361 h 75.277 c 4.059 0 7.361 3.302 7.361 7.361 v 48.47 C 90 65.646 86.697 68.949 82.639 68.949 z M 7.361 7.757 C 4.405 7.757 2 10.162 2 13.118 v 48.47 c 0 2.956 2.405 5.361 5.361 5.361 h 75.277 c 2.956 0 5.361 -2.405 5.361 -5.361 v -48.47 c 0 -2.956 -2.405 -5.361 -5.361 -5.361 H 7.361 z" style="stroke: none; stroke-width: 1; stroke-dasharray: none; stroke-linecap: butt; stroke-linejoin: miter; stroke-miterlimit: 10; fill: rgb(0,0,0); fill-rule: nonzero; opacity: 1;" transform=" matrix(1 0 0 1 0 0) " stroke-linecap="round" />
	<path d="M 26.919 83.243 h -3.465 c -1.709 0 -3.094 -1.385 -3.094 -3.094 v -3.465 c 0 -1.709 1.385 -3.094 3.094 -3.094 h 3.465 c 1.709 0 3.094 1.385 3.094 3.094 v 3.465 C 30.012 81.858 28.627 83.243 26.919 83.243 z" style="stroke: none; stroke-width: 1; stroke-dasharray: none; stroke-linecap: butt; stroke-linejoin: miter; stroke-miterlimit: 10; fill: rgb(178,178,178); fill-rule: nonzero; opacity: 1;" transform=" matrix(1 0 0 1 0 0) " stroke-linecap="round" />
	<path d="M 26.918 84.243 h -3.465 c -2.257 0 -4.094 -1.837 -4.094 -4.094 v -3.465 c 0 -2.257 1.836 -4.094 4.094 -4.094 h 3.465 c 2.257 0 4.094 1.837 4.094 4.094 v 3.465 C 31.012 82.406 29.176 84.243 26.918 84.243 z M 23.454 74.591 c -1.154 0 -2.094 0.939 -2.094 2.094 v 3.465 c 0 1.154 0.939 2.094 2.094 2.094 h 3.465 c 1.154 0 2.094 -0.939 2.094 -2.094 v -3.465 c 0 -1.154 -0.939 -2.094 -2.094 -2.094 H 23.454 z" style="stroke: none; stroke-width: 1; stroke-dasharray: none; stroke-linecap: butt; stroke-linejoin: miter; stroke-miterlimit: 10; fill: rgb(0,0,0); fill-rule: nonzero; opacity: 1;" transform=" matrix(1 0 0 1 0 0) " stroke-linecap="round" />
	<path d="M 20.36 79.417 H 1 c -0.552 0 -1 -0.447 -1 -1 s 0.448 -1 1 -1 h 19.36 c 0.552 0 1 0.447 1 1 S 20.912 79.417 20.36 79.417 z" style="stroke: none; stroke-width: 1; stroke-dasharray: none; stroke-linecap: butt; stroke-linejoin: miter; stroke-miterlimit: 10; fill: rgb(0,0,0); fill-rule: nonzero; opacity: 1;" transform=" matrix(1 0 0 1 0 0) " stroke-linecap="round" />
	<path d="M 89 79.417 H 38.18 c -0.552 0 -1 -0.447 -1 -1 s 0.448 -1 1 -1 H 89 c 0.553 0 1 0.447 1 1 S 89.553 79.417 89 79.417 z" style="stroke: none; stroke-width: 1; stroke-dasharray: none; stroke-linecap: butt; stroke-linejoin: miter; stroke-miterlimit: 10; fill: rgb(0,0,0); fill-rule: nonzero; opacity: 1;" transform=" matrix(1 0 0 1 0 0) " stroke-linecap="round" />
	<path d="M 36.712 50.208 l 20.05 -11.577 c 0.983 -0.568 0.983 -1.987 0 -2.555 l -20.05 -11.577 c -0.983 -0.568 -2.212 0.142 -2.212 1.277 V 48.93 C 34.5 50.066 35.729 50.775 36.712 50.208 z" style="stroke: none; stroke-width: 1; stroke-dasharray: none; stroke-linecap: butt; stroke-linejoin: miter; stroke-miterlimit: 10; fill: rgb(255,255,255); fill-rule: nonzero; opacity: 1;" transform=" matrix(1 0 0 1 0 0) " stroke-linecap="round" />
	<path d="M 35.975 51.409 c -0.425 0 -0.85 -0.111 -1.238 -0.336 c -0.775 -0.447 -1.237 -1.248 -1.237 -2.143 V 25.776 c 0 -0.895 0.462 -1.696 1.237 -2.144 c 0.776 -0.447 1.701 -0.446 2.475 0 l 20.05 11.577 c 0.775 0.448 1.237 1.249 1.237 2.144 s -0.462 1.696 -1.237 2.144 L 37.212 51.074 C 36.825 51.298 36.4 51.409 35.975 51.409 z M 35.976 25.298 c -0.103 0 -0.187 0.036 -0.239 0.066 c -0.088 0.051 -0.237 0.173 -0.237 0.412 v 23.155 c 0 0.247 0.166 0.37 0.237 0.411 c 0.071 0.042 0.261 0.124 0.475 0 l 20.05 -11.578 c 0.207 -0.119 0.237 -0.309 0.237 -0.411 s -0.03 -0.292 -0.237 -0.411 l -20.05 -11.577 C 36.127 25.315 36.047 25.298 35.976 25.298 z" style="stroke: none; stroke-width: 1; stroke-dasharray: none; stroke-linecap: butt; stroke-linejoin: miter; stroke-miterlimit: 10; fill: rgb(0,0,0); fill-rule: nonzero; opacity: 1;" transform=" matrix(1 0 0 1 0 0) " stroke-linecap="round" />
</g>
</svg>