<svg xmlns="http://www.w3.org/2000/svg" xmlns:xlink="http://www.w3.org/1999/xlink" version="1.1" width="256" height="256" viewBox="0 0 256 256" xml:space="preserve">

<defs>
</defs>
<g style="stroke: none; stroke-width: 0; stroke-dasharray: none; stroke-linecap: butt; stroke-linejoin: miter; stroke-miterlimit: 10; fill: none; fill-rule: nonzero; opacity: 1;" transform="translate(1.4065934065934016 1.4065934065934016) scale(2.81 2.81)" >
	<path d="M 83.415 21.871 c -0.968 -3.621 -3.821 -6.474 -7.442 -7.442 c -6.564 -1.759 -32.886 -1.759 -32.886 -1.759 s -26.322 0 -32.886 1.759 c -3.621 0.968 -6.474 3.821 -7.442 7.442 C 1 28.434 1 42.131 1 42.131 s 0 13.696 1.759 20.26 c 0.968 3.621 3.821 6.474 7.442 7.442 c 6.564 1.759 32.886 1.759 32.886 1.759 s 26.322 0 32.886 -1.759 c 3.621 -0.968 6.474 -3.821 7.442 -7.442 c 1.759 -6.564 1.759 -20.26 1.759 -20.26 S 85.174 28.434 83.415 21.871 z" style="stroke: none; stroke-width: 1; stroke-dasharray: none; stroke-linecap: butt; stroke-linejoin: miter; stroke-miterlimit: 10; fill: rgb(254,0,1); fill-rule: nonzero; opacity: 1;" transform=" matrix(1 0 0 1 0 0) " stroke-linecap="round" />
	<path d="M 35.569 54.237 L 55.637 42.65 c 0.4 -0.231 0.4 -0.808 0 -1.038 L 35.569 30.024 c -0.4 -0.231 -0.899 0.058 -0.899 0.519 v 23.175 C 34.67 54.18 35.169 54.468 35.569 54.237 z" style="stroke: none; stroke-width: 1; stroke-dasharray: none; stroke-linecap: butt; stroke-linejoin: miter; stroke-miterlimit: 10; fill: rgb(255,255,255); fill-rule: nonzero; opacity: 1;" transform=" matrix(1 0 0 1 0 0) " stroke-linecap="round" />
	<path d="M 45.957 77.33 c -1.08 0 -26.524 -0.021 -33.134 -1.792 c -3.951 -1.056 -7.062 -4.167 -8.118 -8.119 c -1.771 -6.609 -1.792 -19.942 -1.792 -20.506 c 0 -0.564 0.021 -13.898 1.792 -20.507 c 1.056 -3.951 4.167 -7.062 8.118 -8.118 c 6.609 -1.771 32.053 -1.792 33.133 -1.792 c 1.08 0 26.524 0.021 33.134 1.792 c 3.95 1.056 7.062 4.167 8.118 8.119 C 88.979 33.016 89 46.349 89 46.913 c 0 0.564 -0.021 13.898 -1.792 20.507 c -1.056 3.952 -4.168 7.063 -8.119 8.118 C 72.48 77.31 47.036 77.33 45.957 77.33 z M 45.957 18.409 c -0.262 0 -26.271 0.02 -32.639 1.726 c -3.293 0.881 -5.885 3.473 -6.765 6.765 C 4.846 33.27 4.826 46.777 4.826 46.913 c 0 0.136 0.021 13.646 1.727 20.012 c 0.88 3.294 3.472 5.886 6.765 6.766 c 6.368 1.707 32.377 1.726 32.639 1.726 c 0.262 0 26.271 -0.02 32.639 -1.726 c 3.293 -0.88 5.885 -3.472 6.766 -6.766 c 1.707 -6.369 1.726 -19.876 1.726 -20.012 c 0 -0.136 -0.021 -13.646 -1.726 -20.012 v 0 c -0.881 -3.293 -3.473 -5.885 -6.765 -6.765 C 72.227 18.429 46.219 18.409 45.957 18.409 z" style="stroke: none; stroke-width: 1; stroke-dasharray: none; stroke-linecap: butt; stroke-linejoin: miter; stroke-miterlimit: 10; fill: rgb(0,0,0); fill-rule: nonzero; opacity: 1;" transform=" matrix(1 0 0 1 0 0) " stroke-linecap="round" />
	<path d="M 37.539 60.496 c -0.165 0 -0.33 -0.043 -0.478 -0.128 c -0.296 -0.171 -0.478 -0.487 -0.478 -0.829 V 34.287 c 0 -0.342 0.182 -0.658 0.478 -0.829 c 0.296 -0.171 0.66 -0.171 0.957 0 l 21.866 12.626 c 0.296 0.171 0.478 0.487 0.478 0.829 c 0 0.342 -0.182 0.658 -0.478 0.829 L 38.018 60.368 C 37.87 60.453 37.705 60.496 37.539 60.496 z M 38.496 35.943 v 21.939 l 18.997 -10.969 L 38.496 35.943 z" style="stroke: none; stroke-width: 1; stroke-dasharray: none; stroke-linecap: butt; stroke-linejoin: miter; stroke-miterlimit: 10; fill: rgb(0,0,0); fill-rule: nonzero; opacity: 1;" transform=" matrix(1 0 0 1 0 0) " stroke-linecap="round" />
</g>
</svg>