<svg xmlns="http://www.w3.org/2000/svg" enable-background="new 0 0 100 100" viewBox="0 0 100 100"><path d="M41.615,55.499c-0.764,0-1.383,0.621-1.383,1.387v5.322c-0.032,1.049,1.232,1.763,2.109,1.181
			c0,0,20.438-12.61,20.438-12.61c0.884-0.51,0.861-1.914-0.045-2.389c0,0-20.438-11.559-20.438-11.559
			c-0.878-0.53-2.095,0.177-2.064,1.208v14.338c0.033,1.824,2.735,1.823,2.767,0c0,0,0-11.963,0-11.963L59.33,49.65L42.999,59.725
			v-2.839C42.999,56.12,42.379,55.499,41.615,55.499z"/><path d="M50,2.5C23.808,2.5,2.5,23.863,2.5,50.123c2.609,63.179,92.401,63.16,95,0C97.5,23.863,76.192,2.5,50,2.5z M50,94.972
			c-24.666,0-44.733-20.119-44.733-44.849c2.457-59.498,87.018-59.481,89.466,0C94.733,74.853,74.666,94.972,50,94.972z"/><path d="M49.999,25.123c-1.792,0.038-1.787,2.68,0,2.714c12.321,0,22.344,9.998,22.344,22.287
			c-1.226,29.561-43.463,29.56-44.688,0c0-10.296,6.992-19.197,17.003-21.646c0.73-0.178,1.176-0.913,0.997-1.641
			c-0.179-0.728-0.915-1.174-1.646-0.995c-11.231,2.747-19.075,12.733-19.075,24.282c0,13.785,11.244,25,25.064,25
			C83.253,73.748,83.24,26.49,49.999,25.123z"/></svg>